<?xml version="1.0" encoding="utf-8"?>
<!-- Generator: Adobe Illustrator 19.0.0, SVG Export Plug-In . SVG Version: 6.00 Build 0)  -->
<svg xmlns="http://www.w3.org/2000/svg" xmlns:xlink="http://www.w3.org/1999/xlink" version="1.1" id="Layer_1" x="0px" y="0px" viewBox="0 2 98 98" style="enable-background:new 0 2 98 98;" xml:space="preserve" width="512" height="512">
<style type="text/css">
	.st0{fill:url(#SVGID_1_);}
</style>
<linearGradient id="SVGID_1_" gradientUnits="userSpaceOnUse" x1="49" y1="13.2002" x2="49" y2="88.7998">
	<stop offset="0" style="stop-color:#00EFD1"/>
	<stop offset="1" style="stop-color:#00ACEA"/>
</linearGradient>
<path class="st0" d="M94.4,38.7l-15-24.1c-0.5-0.9-1.5-1.4-2.5-1.4H21.1c-1,0-2,0.5-2.5,1.4l-15,24.1c-0.7,1.2-0.6,2.7,0.4,3.6  l42.9,45.5c0.6,0.6,1.4,0.9,2.2,0.9s1.6-0.3,2.2-0.9l42.9-45.5C95,41.4,95.2,39.9,94.4,38.7z M86.5,37.3H69.9L66,19.2h9.2L86.5,37.3  z M28.8,43.3l11.6,29l-27.3-29H28.8z M62.9,43.3L49,77.7L35.2,43.3H62.9z M34.5,37.3l3.6-18.1h21.8l3.9,18.1H34.5z M69.3,43.3h15.6  L57.7,72.2L69.3,43.3z M22.8,19.2h9.2l-3.6,18.1H11.5L22.8,19.2z"/>
</svg>
